<?xml version="1.0" encoding="UTF-8" standalone="no"?>
<svg
   xmlns:dc="http://purl.org/dc/elements/1.1/"
   xmlns:cc="http://creativecommons.org/ns#"
   xmlns:rdf="http://www.w3.org/1999/02/22-rdf-syntax-ns#"
   xmlns:svg="http://www.w3.org/2000/svg"
   xmlns="http://www.w3.org/2000/svg"
   width="3404.0935"
   height="1965.4097"
   viewBox="0 0 900.66639 520.01463"
   version="1.1"
   id="svg8">
  <defs
     id="defs2" />
  <metadata
     id="metadata5">
    <rdf:RDF>
      <cc:Work
         rdf:about="">
        <dc:format>image/svg+xml</dc:format>
        <dc:type
           rdf:resource="http://purl.org/dc/dcmitype/StillImage" />
        <dc:title></dc:title>
      </cc:Work>
    </rdf:RDF>
  </metadata>
  <g
     id="layer1"
     transform="translate(221.13709,183.43452)"
     style="display:inline">
    <rect
       style="fill:#ffffff;stroke-width:0.264583"
       id="rect14"
       width="338.66666"
       height="338.66666"
       x="-65.76786"
       y="-23.434523" />
  </g>
  <g
     id="layer2"
     style="display:inline"
     transform="translate(155.36923,160)">
    <path
       style="fill:#ececec;stroke:none;stroke-width:0.264583px;stroke-linecap:butt;stroke-linejoin:miter;stroke-opacity:1"
       d="m 329.08965,-90 c 0,0 34.64102,20 34.64102,20 0,0 17.32051,10 17.32051,10 0,0 34.64101,-20 34.64101,-20 0,0 17.32051,10 17.32051,10 0,0 -34.64101,20 -34.64101,20 0,0 17.3205,10 17.3205,10 0,0 51.96153,-30 51.96153,-30 0,0 -51.96153,-30 -51.96153,-30 0,0 -34.64101,20 -34.64101,20 0,0 -17.32051,-10 -17.32051,-10 0,0 34.64102,-20 34.64102,-20 0,0 -17.32051,-10 -17.32051,-10 0,0 -51.96153,30 -51.96153,30 z"
       id="path1496" />
    <path
       style="fill:#ececec;stroke:none;stroke-width:0.264583px;stroke-linecap:butt;stroke-linejoin:miter;stroke-opacity:1"
       d="m 259.80762,-50 c 0,0 17.32051,10 17.32051,10 0,0 17.32051,-10 17.32051,-10 0,0 69.28203,40 69.28203,40 0,0 17.32051,-10 17.32051,-10 0,0 -69.28203,-40 -69.28203,-40 0,0 17.3205,-10 17.3205,-10 0,0 -17.3205,-10 -17.3205,-10 0,0 -51.96153,30 -51.96153,30 z"
       id="path1494" />
    <path
       style="fill:none;stroke:none;stroke-width:0.264583px;stroke-linecap:butt;stroke-linejoin:miter;stroke-opacity:1"
       d="m 155.88457,30 c 0,0 51.96153,30 51.96153,30 0,0 17.3205,-10 17.3205,-10 0,0 -51.96152,-30 -51.96152,-30 0,0 -17.32051,10 -17.32051,10 z"
       id="path1488" />
    <path
       id="path1486"
       style="fill:#ececec;stroke:none;stroke-width:0.999999px;stroke-linecap:butt;stroke-linejoin:miter;stroke-opacity:1"
       d="M 654.63281,0 458.24414,113.38672 785.56055,302.36133 981.94922,188.97656 Z m 0,75.589844 196.39063,113.386716 -65.46289,37.79492 -196.39063,-113.38476 z"
       transform="scale(0.26458333)" />
    <path
       style="fill:#ececec;stroke:none;stroke-width:0.264583px;stroke-linecap:butt;stroke-linejoin:miter;stroke-opacity:1"
       d="m 51.961524,90 c 0,0 -17.320504,-10 -17.320504,-10 0,0 -51.96153,30 -51.96153,30 0,0 51.96153,30 51.96153,30 0,0 34.641012,-20 34.641012,-20 0,0 17.320508,10 17.320508,10 0,0 -34.641016,20 -34.641016,20 0,0 17.320508,10 17.320508,10 0,0 51.961528,-30 51.961528,-30 0,0 -51.961528,-30 -51.961528,-30 0,0 -34.641012,20 -34.641012,20 0,0 -17.32051,-10 -17.32051,-10 0,0 34.641014,-20 34.641014,-20 z"
       id="path1480" />
    <path
       style="fill:#ececec;stroke:none;stroke-width:0.264583px;stroke-linecap:butt;stroke-linejoin:miter;stroke-opacity:1"
       d="m -86.60254,150 c 0,0 86.60254,50 86.60254,50 0,0 51.961525,-30 51.961525,-30 0,0 -17.320505,-10 -17.320505,-10 C 34.64102,160 0,180 0,180 0,180 -17.32051,170 -17.32051,170 -17.32051,170 0,160 0,160 c 0,0 -17.32051,-10 -17.32051,-10 0,0 -17.32051,10 -17.32051,10 0,0 -17.32051,-10 -17.32051,-10 0,0 17.32051,-10 17.32051,-10 0,0 17.32051,-10 17.32051,-10 0,0 -17.32051,-10 -17.32051,-10 0,0 -51.96152,30 -51.96152,30 z"
       id="path1427" />
    <path
       id="path1602"
       style="fill:#e6e6e6;stroke:none;stroke-width:0.999999px;stroke-linecap:butt;stroke-linejoin:miter;stroke-opacity:1"
       d="M 392.7793,151.18164 196.39062,264.56641 523.70703,453.54297 589.16992,415.74805 458.24414,340.1582 589.16992,264.56641 Z m 0,75.58984 65.46484,37.79493 -65.46484,37.79492 -65.46289,-37.79492 z"
       transform="scale(0.26458333)" />
    <path
       id="path1607"
       style="fill:#e6e6e6;stroke:none;stroke-width:0.999999px;stroke-linecap:butt;stroke-linejoin:miter;stroke-opacity:1"
       d="M 916.48633,-151.18164 720.09766,-37.794922 1047.4141,151.18164 1112.877,113.38672 981.94922,37.794922 1178.3398,75.589844 1243.8027,37.794922 1047.4141,0 1112.877,-37.794922 Z m 0,75.591796 65.46289,37.794922 L 916.48633,0 851.02344,-37.794922 Z"
       transform="scale(0.26458333)" />
  </g>
  <g
     id="layer3"
     style="display:inline"
     transform="translate(155.36923,160)">
    <path
       style="fill:#ececec;stroke:none;stroke-width:0.264583px;stroke-linecap:butt;stroke-linejoin:miter;stroke-opacity:1"
       d="m 398.88704,-9.9853722 c 0,0 51.96152,-30.0000008 51.96152,-30.0000008 0,0 17.32051,10 17.32051,10 0,0 -34.64102,20.0000008 -34.64102,20.0000008 0,0 17.32051,9.99999964 17.32051,9.99999964 0,0 17.32051,-9.99999964 17.32051,-9.99999964 0,0 17.32051,9.99999964 17.32051,9.99999964 0,0 -17.32051,9.99999956 -17.32051,9.99999956 0,0 17.32051,10 17.32051,10 0,0 34.64102,-19.99999956 34.64102,-19.99999956 0,0 17.3205,9.99999956 17.3205,9.99999956 0,0 -51.96152,29.999996 -51.96152,29.999996 0,0 -86.60254,-49.9999952 -86.60254,-49.9999952 z"
       id="path1516" />
    <path
       style="fill:#ececec;stroke:none;stroke-width:0.264583px;stroke-linecap:butt;stroke-linejoin:miter;stroke-opacity:1"
       d="m 537.4511,-89.985373 c 0,0 17.32051,10 17.32051,10 0,0 17.32051,-10 17.32051,-10 0,0 51.96152,30 51.96152,30 0,0 -17.3205,10 -17.3205,10 0,0 17.3205,10 17.3205,10 0,0 51.96153,-30 51.96153,-30 0,0 -17.32051,-10 -17.32051,-10 0,0 -17.32051,10 -17.32051,10 0,0 -51.96152,-30 -51.96152,-30 0,0 17.32051,-10.000007 17.32051,-10.000007 0,0 -17.32051,-9.99999 -17.32051,-9.99999 0,0 -51.96153,29.999997 -51.96153,29.999997 z"
       id="path1522" />
    <path
       id="path1592"
       style="fill:#e6e6e6;stroke:none;stroke-width:0.264583px;stroke-linecap:butt;stroke-linejoin:miter;stroke-opacity:1"
       d="m 502.81015,-69.985473 -34.64129,20.00032 86.603,49.99954044 34.64075,-19.99981944 v -19.999811 l -51.96168,-30.00023 z m 17.32039,9.9999 51.96168,30.00024 -17.32036,9.999901 -51.96171,-29.999721 z" />
    <path
       id="path1597"
       style="fill:#e6e6e6;stroke:none;stroke-width:0.264583px;stroke-linecap:butt;stroke-linejoin:miter;stroke-opacity:1"
       d="m 658.69471,-159.98514 -51.9617,29.9997 86.60246,50.000057 17.32092,-9.99991 -34.64131,-20.000327 17.32039,-9.9999 34.64131,20.000327 17.32039,-10.000427 z m 0,19.9998 17.32037,9.9999 -17.32037,9.99992 -17.32039,-9.99992 z" />
    <path
       style="display:inline;fill:#ececec;stroke:none;stroke-width:0.264583px;stroke-linecap:butt;stroke-linejoin:miter;stroke-opacity:1"
       d="m 176.60734,121.68137 c 2.8869,1.66676 8.6601,4.99992 14.43361,8.33325 0,0 -34.64102,20 -34.64102,20 0,0 51.96152,30 51.96152,30 0,0 34.64102,-20 34.64102,-20 0,0 17.3205,10 17.3205,10 0,0 -51.96152,30 -51.96152,30 0,0 -86.60254,-50 -86.60254,-50 0,0 51.96152,-30 51.96152,-30 0,0 0,0 0,0 0,0 0,0 0,0 0,0 0,0 2.88691,1.66675 z"
       id="path1444" />
    <path
       style="display:inline;fill:#ececec;stroke:none;stroke-width:0.264583px;stroke-linecap:butt;stroke-linejoin:miter;stroke-opacity:1"
       d="m 191.04095,110.01462 c 0,0 17.3205,-10 17.3205,-10 0,0 69.28204,40 69.28204,40 0,0 34.641,-20 34.641,-20 0,0 17.32052,10 17.32052,10 0,0 -51.96152,30 -51.96152,30 0,0 -86.60254,-50 -86.60254,-50 z"
       id="path1452" />
    <path
       id="path1587"
       style="display:inline;fill:#e6e6e6;stroke:none;stroke-width:0.264583px;stroke-linecap:butt;stroke-linejoin:miter;stroke-opacity:1"
       d="M 381.5664,0.01438744 329.60522,30.01462 416.20769,80.01467 433.52808,70.014761 398.88679,50.014434 433.52808,30.01462 Z m 0,20.00032956 17.32039,9.999903 -17.32039,9.999908 -17.32039,-9.999908 z" />
    <path
       style="fill:#ececec;stroke:none;stroke-width:0.264583px;stroke-linecap:butt;stroke-linejoin:miter;stroke-opacity:1"
       d="m 52.476884,190.01462 c 0,0 17.32051,-10 17.32051,-10 0,0 17.3205,10 17.3205,10 0,0 17.320506,-10 17.320506,-10 0,0 -17.320506,-10 -17.320506,-10 0,0 17.320506,-10 17.320506,-10 0,0 34.64102,20 34.64102,20 0,0 -17.32051,10 -17.32051,10 0,0 51.96152,30 51.96152,30 0,0 -17.3205,10.00001 -17.3205,10.00001 0,0 -51.96153,-30.00001 -51.96153,-30.00001 0,0 -17.320506,10 -17.320506,10 0,0 -34.64101,-20 -34.64101,-20 z"
       id="path1504" />
    <path
       style="fill:#ececec;stroke:none;stroke-width:0.264583px;stroke-linecap:butt;stroke-linejoin:miter;stroke-opacity:1"
       d="m -16.805146,230.01463 c 0,0 86.60254,50 86.60254,50 0,0 51.961516,-30 51.961516,-30 0,0 -17.3205,-10 -17.3205,-10 0,0 -34.641016,20 -34.641016,20 0,0 -51.96153,-30 -51.96153,-30 0,0 34.64103,-20.00001 34.64103,-20.00001 0,0 -17.32052,-10 -17.32052,-10 0,0 -51.96152,30.00001 -51.96152,30.00001 z"
       id="path1440" />
    <path
       id="path1582"
       style="fill:#e6e6e6;stroke:none;stroke-width:0.264583px;stroke-linecap:butt;stroke-linejoin:miter;stroke-opacity:1"
       d="m 312.28433,40.014528 -51.96118,30.000233 86.60247,50.000049 51.96117,-30.000239 z m 0,20.000327 51.96168,29.999716 -17.32039,9.999909 -51.96168,-29.999719 z" />
    <path
       style="fill:#e6e6e6;stroke:none;stroke-width:0.264583px;stroke-linecap:butt;stroke-linejoin:miter;stroke-opacity:1"
       d="m 52.476894,290.01463 -86.60255,-50 -17.32051,10 L 0,280 l -68.766679,-19.98537 -17.320515,10 86.60254864,50 17.32050936,-10 L -34.641016,280 34.641016,300 Z"
       id="path1620" />
    <path
       style="fill:#e6e6e6;stroke:none;stroke-width:0.264583px;stroke-linecap:butt;stroke-linejoin:miter;stroke-opacity:1"
       d="m -103.4077,280.01463 17.320506,10 -34.641016,20 17.32051,10 17.320506,-10 17.320515,10 -17.320515,10 17.320515,10 17.320513,-10 17.32051,-10 17.32051,10 -51.961533,30 -86.602551,-50 z"
       id="path1622" />
    <path
       style="fill:#b3b3b3;stroke:none;stroke-width:0.264583px;stroke-linecap:butt;stroke-linejoin:miter;stroke-opacity:1"
       d="m 17.320508,230 v 20 l 51.961526,29.99999 V 260 Z"
       id="path940" />
    <path
       style="fill:#b3b3b3;stroke:none;stroke-width:0.264583px;stroke-linecap:butt;stroke-linejoin:miter;stroke-opacity:1"
       d="m 103.92305,240 v 20 l 17.32051,-10 z"
       id="path942" />
    <path
       style="fill:#b3b3b3;stroke:none;stroke-width:0.264583px;stroke-linecap:butt;stroke-linejoin:miter;stroke-opacity:1"
       d="m 34.641017,200 v 20 l 17.320508,-10 z"
       id="path944" />
    <path
       style="fill:#b3b3b3;stroke:none;stroke-width:0.264583px;stroke-linecap:butt;stroke-linejoin:miter;stroke-opacity:1"
       d="m 69.282034,180 v 20 l 17.320506,10 v -20 z"
       id="path946" />
    <path
       style="fill:#b3b3b3;stroke:none;stroke-width:0.264583px;stroke-linecap:butt;stroke-linejoin:miter;stroke-opacity:1"
       d="m 103.92305,180 v 20 l -17.32051,10 v -20 z"
       id="path948" />
    <path
       style="fill:#b3b3b3;stroke:none;stroke-width:0.264583px;stroke-linecap:butt;stroke-linejoin:miter;stroke-opacity:1"
       d="m 103.92305,160 v 20 l 17.32051,10 17.32051,-10 z"
       id="path950" />
    <path
       style="fill:#b3b3b3;stroke:none;stroke-width:0.264583px;stroke-linecap:butt;stroke-linejoin:miter;stroke-opacity:1"
       d="m 121.24356,190 v 20 l 34.64101,20 17.32051,-10 z"
       id="path952" />
    <path
       style="fill:#b3b3b3;stroke:none;stroke-width:0.264583px;stroke-linecap:butt;stroke-linejoin:miter;stroke-opacity:1"
       d="m 173.20508,120 v 20 l 17.32051,-10 z"
       id="path954" />
    <path
       style="fill:#b3b3b3;stroke:none;stroke-width:0.264583px;stroke-linecap:butt;stroke-linejoin:miter;stroke-opacity:1"
       d="m 155.88457,150 v 20 l 51.96153,30 v -20 z"
       id="path956" />
    <path
       style="fill:#b3b3b3;stroke:none;stroke-width:0.264583px;stroke-linecap:butt;stroke-linejoin:miter;stroke-opacity:1"
       d="m 242.48711,160 v 20 l 17.32051,-10 z"
       id="path958" />
    <path
       style="fill:#b3b3b3;stroke:none;stroke-width:0.264583px;stroke-linecap:butt;stroke-linejoin:miter;stroke-opacity:1"
       d="m 207.8461,100 v 20 l 69.28203,40 v -20 z"
       id="path960" />
    <path
       style="fill:#b3b3b3;stroke:none;stroke-width:0.264583px;stroke-linecap:butt;stroke-linejoin:miter;stroke-opacity:1"
       d="m 311.76915,120 v 20 l 17.3205,-10 z"
       id="path962" />
    <path
       style="fill:#b3b3b3;stroke:none;stroke-width:0.264583px;stroke-linecap:butt;stroke-linejoin:miter;stroke-opacity:1"
       d="M 294.44865,69.999999 V 90.000001 L 346.41017,120 v -20 z"
       id="path964" />
    <path
       style="fill:#b3b3b3;stroke:none;stroke-width:0.264583px;stroke-linecap:butt;stroke-linejoin:miter;stroke-opacity:1"
       d="M 363.73067,90.000001 V 110 l -17.3205,10 v -20 z"
       id="path966" />
    <path
       style="fill:#b3b3b3;stroke:none;stroke-width:0.264583px;stroke-linecap:butt;stroke-linejoin:miter;stroke-opacity:1"
       d="M 311.76915,40.000002 V 60.000001 L 381.05119,100 l 17.3205,-9.999999 z"
       id="path968" />
    <path
       style="fill:#b3b3b3;stroke:none;stroke-width:0.264583px;stroke-linecap:butt;stroke-linejoin:miter;stroke-opacity:1"
       d="m 363.73067,30 v 20 l 17.32052,10.000001 V 40.000002 Z"
       id="path970" />
    <path
       style="fill:#b3b3b3;stroke:none;stroke-width:0.264583px;stroke-linecap:butt;stroke-linejoin:miter;stroke-opacity:1"
       d="M 398.37169,50 V 69.999999 L 415.69219,80 433.01271,69.999999 Z"
       id="path972" />
    <path
       style="fill:#b3b3b3;stroke:none;stroke-width:0.264583px;stroke-linecap:butt;stroke-linejoin:miter;stroke-opacity:1"
       d="M 381.05119,40.000002 V 60.000001 L 398.37169,50 V 30 Z"
       id="path974" />
    <path
       style="fill:#b3b3b3;stroke:none;stroke-width:0.264583px;stroke-linecap:butt;stroke-linejoin:miter;stroke-opacity:1"
       d="m 381.05119,0 v 20 l 34.641,20.000002 L 433.01271,30 Z"
       id="path976" />
    <path
       style="fill:#b3b3b3;stroke:none;stroke-width:0.264583px;stroke-linecap:butt;stroke-linejoin:miter;stroke-opacity:1"
       d="M 450.33321,-40.000002 V -20 l 17.32052,-10 z"
       id="path978" />
    <path
       style="fill:#b3b3b3;stroke:none;stroke-width:0.264583px;stroke-linecap:butt;stroke-linejoin:miter;stroke-opacity:1"
       d="m 433.01271,-10 v 20 l 17.3205,10 V 0 Z"
       id="path980" />
    <path
       style="fill:#b3b3b3;stroke:none;stroke-width:0.264583px;stroke-linecap:butt;stroke-linejoin:miter;stroke-opacity:1"
       d="M 467.65373,-10 V 10 L 484.97423,0 Z"
       id="path982" />
    <path
       style="fill:#b3b3b3;stroke:none;stroke-width:0.264583px;stroke-linecap:butt;stroke-linejoin:miter;stroke-opacity:1"
       d="m 467.65373,10 v 20 l 17.3205,10.000002 V 20 Z"
       id="path984" />
    <path
       style="fill:#b3b3b3;stroke:none;stroke-width:0.264583px;stroke-linecap:butt;stroke-linejoin:miter;stroke-opacity:1"
       d="m 519.61525,0 v 20 l 17.3205,-10 z"
       id="path986" />
    <path
       style="fill:#b3b3b3;stroke:none;stroke-width:0.264583px;stroke-linecap:butt;stroke-linejoin:miter;stroke-opacity:1"
       d="m 502.29473,-50 v 20 l 51.96152,30 v -20 z"
       id="path990" />
    <path
       style="fill:#b3b3b3;stroke:none;stroke-width:0.264583px;stroke-linecap:butt;stroke-linejoin:miter;stroke-opacity:1"
       d="m 554.25625,-20 17.32052,-10 v 20 L 554.25625,0 Z"
       id="path992" />
    <path
       style="fill:#b3b3b3;stroke:none;stroke-width:0.264583px;stroke-linecap:butt;stroke-linejoin:miter;stroke-opacity:1"
       d="M 536.93575,-69.999999 V -50 l 51.96152,30 v -20.000002 z"
       id="path994" />
    <path
       style="fill:#b3b3b3;stroke:none;stroke-width:0.264583px;stroke-linecap:butt;stroke-linejoin:miter;stroke-opacity:1"
       d="M 502.29473,-69.999999 V -50 L 519.61525,-60.000001 536.93575,-50 v -19.999999 z"
       id="path996" />
    <path
       style="fill:#b3b3b3;stroke:none;stroke-width:0.264583px;stroke-linecap:butt;stroke-linejoin:miter;stroke-opacity:1"
       d="m 588.89727,-120 v 20 l 17.32053,-10 z"
       id="path998" />
    <path
       style="fill:#b3b3b3;stroke:none;stroke-width:0.264583px;stroke-linecap:butt;stroke-linejoin:miter;stroke-opacity:1"
       d="m 588.89727,-100 v 20 l 51.96152,30 v -19.999999 z"
       id="path1000" />
    <path
       style="fill:#b3b3b3;stroke:none;stroke-width:0.264583px;stroke-linecap:butt;stroke-linejoin:miter;stroke-opacity:1"
       d="m 658.17932,-80 v 19.999999 l 17.3205,-9.999998 z"
       id="path1002" />
    <path
       style="fill:#b3b3b3;stroke:none;stroke-width:0.264583px;stroke-linecap:butt;stroke-linejoin:miter;stroke-opacity:1"
       d="m 640.85879,-130 v 20 l 17.32053,10 v -20 z"
       id="path1004" />
    <path
       style="fill:#b3b3b3;stroke:none;stroke-width:0.264583px;stroke-linecap:butt;stroke-linejoin:miter;stroke-opacity:1"
       d="m 658.17932,-120 v 20 l 17.3205,-10 v -20 z"
       id="path1006" />
    <path
       style="fill:#b3b3b3;stroke:none;stroke-width:0.264583px;stroke-linecap:butt;stroke-linejoin:miter;stroke-opacity:1"
       d="m 675.49982,-110 v 19.999999 L 692.82034,-80 l 17.3205,-10.000001 z"
       id="path1008" />
    <path
       style="fill:#b3b3b3;stroke:none;stroke-width:0.264583px;stroke-linecap:butt;stroke-linejoin:miter;stroke-opacity:1"
       d="m 710.14084,-130 v 20 l 17.3205,10 17.32052,-10 z"
       id="path1010" />
    <path
       style="fill:#b3b3b3;stroke:none;stroke-width:0.264583px;stroke-linecap:butt;stroke-linejoin:miter;stroke-opacity:1"
       d="m 658.17932,-160 v 20 l 51.96152,30 v -20 z"
       id="path1012" />
    <path
       style="fill:#b3b3b3;stroke:none;stroke-width:0.264583px;stroke-linecap:butt;stroke-linejoin:miter;stroke-opacity:1"
       d="m -34.641017,120 v 20 l 17.320509,-10 z"
       id="path1014" />
    <path
       style="fill:#b3b3b3;stroke:none;stroke-width:0.264583px;stroke-linecap:butt;stroke-linejoin:miter;stroke-opacity:1"
       d="m -51.961525,150 v 20 l 17.320508,10 v -20 z"
       id="path1016" />
    <path
       style="fill:#b3b3b3;stroke:none;stroke-width:0.264583px;stroke-linecap:butt;stroke-linejoin:miter;stroke-opacity:1"
       d="m -17.320508,150 v 20 L 0,160 Z"
       id="path1018" />
    <path
       style="fill:#b3b3b3;stroke:none;stroke-width:0.264583px;stroke-linecap:butt;stroke-linejoin:miter;stroke-opacity:1"
       d="m -17.320508,170 v 20 L 0,200 v -20 z"
       id="path1020" />
    <path
       style="fill:#b3b3b3;stroke:none;stroke-width:0.264583px;stroke-linecap:butt;stroke-linejoin:miter;stroke-opacity:1"
       d="m 34.641017,160 v 20 l 17.320508,-10 z"
       id="path1022" />
    <path
       style="fill:#b3b3b3;stroke:none;stroke-width:0.264583px;stroke-linecap:butt;stroke-linejoin:miter;stroke-opacity:1"
       d="m 34.641017,80 v 20 l 17.320508,-9.999999 z"
       id="path1024" />
    <path
       style="fill:#b3b3b3;stroke:none;stroke-width:0.264583px;stroke-linecap:butt;stroke-linejoin:miter;stroke-opacity:1"
       d="m 17.320508,110 v 20 l 17.320509,10 v -20 z"
       id="path1026" />
    <path
       style="fill:#b3b3b3;stroke:none;stroke-width:0.264583px;stroke-linecap:butt;stroke-linejoin:miter;stroke-opacity:1"
       d="m 69.282034,100 v 20 l 34.641016,20 17.32051,-10 z"
       id="path1028" />
    <path
       style="fill:#b3b3b3;stroke:none;stroke-width:0.264583px;stroke-linecap:butt;stroke-linejoin:miter;stroke-opacity:1"
       d="M 86.60254,69.999999 V 90.000001 L 103.92305,100 121.24356,90.000001 V 69.999999 L 103.92305,80 Z"
       id="path1030" />
    <path
       style="fill:#b3b3b3;stroke:none;stroke-width:0.264583px;stroke-linecap:butt;stroke-linejoin:miter;stroke-opacity:1"
       d="M 121.24356,90.000001 V 110 l 17.32051,10 17.3205,-10 z"
       id="path1032" />
    <path
       style="fill:#b3b3b3;stroke:none;stroke-width:0.264583px;stroke-linecap:butt;stroke-linejoin:miter;stroke-opacity:1"
       d="M 103.92305,40.000002 V 60.000001 L 138.56407,80 155.88457,69.999999 Z"
       id="path1034" />
    <path
       style="fill:#b3b3b3;stroke:none;stroke-width:0.264583px;stroke-linecap:butt;stroke-linejoin:miter;stroke-opacity:1"
       d="M 155.88457,30 V 50 L 207.8461,80 V 60.000001 Z"
       id="path1036" />
    <path
       style="fill:#b3b3b3;stroke:none;stroke-width:0.264583px;stroke-linecap:butt;stroke-linejoin:miter;stroke-opacity:1"
       d="M 225.16661,50 V 69.999999 L 207.8461,80 V 60.000001 Z"
       id="path1038" />
    <path
       style="fill:#b3b3b3;stroke:none;stroke-width:0.264583px;stroke-linecap:butt;stroke-linejoin:miter;stroke-opacity:1"
       d="M 173.20508,0 V 20 L 242.48711,60.000001 259.80762,50 Z"
       id="path1040" />
    <path
       style="fill:#b3b3b3;stroke:none;stroke-width:0.264583px;stroke-linecap:butt;stroke-linejoin:miter;stroke-opacity:1"
       d="m 225.16661,-10 v 20 l 17.3205,10 V 0 Z"
       id="path1042" />
    <path
       style="fill:#b3b3b3;stroke:none;stroke-width:0.264583px;stroke-linecap:butt;stroke-linejoin:miter;stroke-opacity:1"
       d="M 242.48711,0 V 20 L 259.80762,10 V -10 Z"
       id="path1044" />
    <path
       style="fill:#b3b3b3;stroke:none;stroke-width:0.264583px;stroke-linecap:butt;stroke-linejoin:miter;stroke-opacity:1"
       d="M 259.80762,10 V 30 L 277.12813,40.000002 294.44865,30 Z"
       id="path1046" />
    <path
       id="path1048"
       style="fill:#b3b3b3;stroke:none;stroke-width:0.999999px;stroke-linecap:butt;stroke-linejoin:miter;stroke-opacity:1"
       d="m 1047.4141,0 v 50.392578 l 130.9257,25.197266 65.4629,-37.794922 z"
       transform="scale(0.26458333)" />
    <path
       style="fill:#b3b3b3;stroke:none;stroke-width:0.264583px;stroke-linecap:butt;stroke-linejoin:miter;stroke-opacity:1"
       d="M 242.48711,-40.000002 V -20 l 34.64102,20 17.32052,-10 z"
       id="path1053" />
    <path
       style="fill:#b3b3b3;stroke:none;stroke-width:0.264583px;stroke-linecap:butt;stroke-linejoin:miter;stroke-opacity:1"
       d="m 311.76915,-80 v 19.999999 l 17.3205,-9.999998 z"
       id="path1055" />
    <path
       style="fill:#b3b3b3;stroke:none;stroke-width:0.264583px;stroke-linecap:butt;stroke-linejoin:miter;stroke-opacity:1"
       d="m 311.76915,-60.000001 v 19.999999 L 363.73067,-10 381.05119,-20 Z"
       id="path1057" />
    <path
       style="fill:#b3b3b3;stroke:none;stroke-width:0.264583px;stroke-linecap:butt;stroke-linejoin:miter;stroke-opacity:1"
       d="m 381.05119,-120 v 20 l 17.3205,-10 z"
       id="path1059" />
    <path
       style="fill:#b3b3b3;stroke:none;stroke-width:0.264583px;stroke-linecap:butt;stroke-linejoin:miter;stroke-opacity:1"
       d="m 363.73067,-90.000001 v 20.000002 l 17.32052,9.999998 V -80 Z"
       id="path1061" />
    <path
       style="fill:#b3b3b3;stroke:none;stroke-width:0.264583px;stroke-linecap:butt;stroke-linejoin:miter;stroke-opacity:1"
       d="m 415.69219,-100 v 20 l 34.64102,19.999999 17.32052,-9.999998 z"
       id="path1063" />
  </g>
  <g
     id="layer4"
     style="display:inline"
     transform="translate(155.36923,160)">
    <path
       style="fill:#b3b3b3;stroke:none;stroke-width:0.264583px;stroke-linecap:butt;stroke-linejoin:miter;stroke-opacity:1"
       d="M -103.92305,279.99999 V 300 l 17.32051,-10 z"
       id="path1631" />
    <path
       style="fill:#b3b3b3;stroke:none;stroke-width:0.264583px;stroke-linecap:butt;stroke-linejoin:miter;stroke-opacity:1"
       d="M -86.60254,310.00001 V 330 l 17.320506,-10.00001 z"
       id="path1633" />
    <path
       style="fill:#b3b3b3;stroke:none;stroke-width:0.264583px;stroke-linecap:butt;stroke-linejoin:miter;stroke-opacity:1"
       d="M -34.641017,319.99999 V 340 l 17.320509,-10 z"
       id="path1635" />
    <path
       style="fill:#b3b3b3;stroke:none;stroke-width:0.264583px;stroke-linecap:butt;stroke-linejoin:miter;stroke-opacity:1"
       d="m -69.282034,340 v 19.99999 L -86.60254,350.00001 V 330 Z"
       id="path1641" />
    <path
       style="fill:#b3b3b3;stroke:none;stroke-width:0.264583px;stroke-linecap:butt;stroke-linejoin:miter;stroke-opacity:1"
       d="M -103.92305,319.99999 V 340 l -17.32051,-10 v -19.99999 z"
       id="path1643" />
    <path
       style="fill:#b3b3b3;stroke:none;stroke-width:0.264583px;stroke-linecap:butt;stroke-linejoin:miter;stroke-opacity:1"
       d="m -34.641017,240 v 20 l 69.282034,40 17.320508,-10 z"
       id="path1647" />
    <path
       style="fill:#b3b3b3;stroke:none;stroke-width:0.264583px;stroke-linecap:butt;stroke-linejoin:miter;stroke-opacity:1"
       d="m -34.641016,280 v 20 L 0,319.99999 17.320508,310.00001 Z"
       id="path1649" />
  </g>
  <path
     id="path1668"
     style="fill:#b3b3b3;stroke:none;stroke-width:0.264583px;stroke-linecap:butt;stroke-linejoin:miter;stroke-opacity:1"
     d="m 86.087154,420.00015 v 19.99982 l 69.281046,19.99929 -34.63975,-19.99929 34.64078,9.9999 v -9.9999 z" />
</svg>
